<?xml version="1.0" standalone="no"?>
<!DOCTYPE svg PUBLIC "-//W3C//DTD SVG 20010904//EN"
 "http://www.w3.org/TR/2001/REC-SVG-20010904/DTD/svg10.dtd">
<svg version="1.0" xmlns="http://www.w3.org/2000/svg"
 width="512.000000pt" height="512.000000pt" viewBox="0 0 512.000000 512.000000"
 preserveAspectRatio="xMidYMid meet">
<metadata>
Created by potrace 1.11, written by Peter Selinger 2001-2013
</metadata>
<g transform="translate(0.000000,512.000000) scale(0.100000,-0.100000)"
fill="#000000" stroke="none">
<path d="M2325 4313 c-588 -23 -1067 -185 -1402 -474 -88 -75 -98 -100 -89
-214 l6 -82 -73 -54 c-102 -75 -291 -268 -365 -374 -78 -110 -159 -271 -174
-347 -9 -44 -9 -71 1 -120 12 -62 12 -65 -19 -133 -80 -178 -149 -423 -185
-655 -22 -144 -31 -477 -16 -621 23 -220 66 -383 113 -426 28 -25 83 -21 148
12 30 15 137 83 236 151 100 67 246 161 325 208 124 74 145 84 158 72 9 -7 31
-21 50 -31 43 -22 110 -13 479 61 151 31 275 54 276 52 30 -43 86 -103 107
-114 23 -12 119 -14 571 -14 l543 0 62 65 63 66 272 -55 c359 -73 426 -81 472
-62 20 8 52 27 72 43 l36 27 182 -91 c99 -51 269 -142 376 -203 248 -142 315
-176 388 -196 51 -14 63 -15 88 -3 36 17 60 65 79 155 23 109 20 543 -5 704
-42 275 -128 557 -231 762 l-30 60 37 87 c47 110 52 150 24 223 -83 221 -418
565 -738 757 -73 44 -74 44 -71 85 5 112 4 116 -70 187 -232 223 -632 396
-1061 459 -127 18 -452 42 -530 38 -19 -1 -66 -3 -105 -5z"/>
</g>
</svg>
